<svg xmlns="http://www.w3.org/2000/svg" width="1000" height="850" viewBox="0 0 1000 850"><defs><linearGradient id="wall" x2="1" y2="1"><stop stop-color="#5b5a44"/><stop offset="1" stop-color="#253c31"/></linearGradient><linearGradient id="floor" x2="0" y2="1"><stop stop-color="#675341"/><stop offset="1" stop-color="#282b25"/></linearGradient><radialGradient id="light"><stop stop-color="#efd4a2" stop-opacity=".45"/><stop offset="1" stop-color="#e5b567" stop-opacity="0"/></radialGradient><filter id="grain"><feTurbulence type="fractalNoise" baseFrequency=".7" numOctaves="3" stitchTiles="stitch"/><feColorMatrix type="saturate" values="0"/><feComponentTransfer><feFuncA type="linear" slope=".055"/></feComponentTransfer><feBlend in="SourceGraphic" mode="soft-light"/></filter></defs><g filter="url(#grain)"><path fill="url(#wall)" d="M0 0h1000v850H0z"/><path fill="url(#floor)" d="M0 515h1000v335H0z"/><path fill="#101c19" d="M80 120h350v390H80z"/><g stroke="#7b7964" stroke-width="7"><path d="M80 120h350v390H80zM255 120v390M80 270h350" fill="none"/></g><path fill="#bfa77e" opacity=".35" d="M87 280h160v218H87z"/><g stroke="#77725b" stroke-width="4" opacity=".55"><path d="M530 0v525M660 0v525M790 0v525M920 0v525"/></g><ellipse cx="655" cy="250" rx="260" ry="230" fill="url(#light)"/><ellipse cx="285" cy="175" rx="230" ry="210" fill="url(#light)"/><g stroke="#181c18" stroke-width="5"><path d="M285 0v147M655 0v225"/></g><path fill="#c7a568" d="M228 165q57-75 114 0zM592 242q63-84 126 0z"/><path stroke="#efdfb8" stroke-width="4" d="M228 166h114M592 243h126"/><g fill="#483f31" stroke="#a48a61" stroke-width="5"><rect x="73" y="471" width="116" height="150" rx="28"/><rect x="411" y="500" width="116" height="150" rx="28"/><rect x="710" y="443" width="105" height="155" rx="24"/><rect x="874" y="549" width="105" height="160" rx="24"/></g><g fill="#c3b49a"><path d="M103 557l287-37 161 110-305 59z"/><path d="M565 521l214-34 120 88-229 44z"/></g><g fill="#4b4134"><path d="M246 689l305-59v24l-305 62zM670 619l229-44v18l-229 44z"/></g><g stroke="#262722" stroke-width="13"><path d="M144 599l-14 160M506 648l17 158M597 560l-8 116M866 595l14 139"/></g><g fill="#eee8d9" stroke="#a99c83" stroke-width="4"><ellipse cx="238" cy="583" rx="48" ry="14"/><ellipse cx="427" cy="615" rx="47" ry="14"/><ellipse cx="677" cy="546" rx="34" ry="10"/><ellipse cx="801" cy="571" rx="34" ry="10"/></g><g fill="none" stroke="#e8dcc4" stroke-width="2"><path d="M309 529l4 38h20l4-38zM323 567v24m-12 0h24M740 512l3 28h15l3-28zM750 540v20m-10 0h20"/></g><path fill="#c6ad80" d="M354 565h14v38h-14z"/><ellipse cx="361" cy="564" rx="7" ry="4" fill="#f2d89b"/><path d="M360 548q-8 12 1 16q8-5-1-16" fill="#f4d595"/><g fill="#354333"><ellipse cx="940" cy="340" rx="24" ry="70" transform="rotate(35 940 340)"/><ellipse cx="901" cy="381" rx="23" ry="80" transform="rotate(-25 901 381)"/><ellipse cx="974" cy="418" rx="30" ry="76" transform="rotate(45 974 418)"/></g><path fill="#635742" d="M906 485h76l-12 90h-52z"/><g opacity=".28" stroke="#d0b085" stroke-width="1"><path d="M0 730l1000-180M0 790l1000-180M170 515L45 850M430 515l80 335M700 515l210 335"/></g><ellipse cx="361" cy="575" rx="37" ry="48" fill="url(#light)"/></g></svg>
